<svg width="18" height="16" viewBox="0 0 18 16" fill="none" xmlns="http://www.w3.org/2000/svg">
<path d="M14.3537 9.95302C14.1356 10.1644 14.0354 10.47 14.0851 10.7698L14.8337 14.9127C14.8968 15.2638 14.7486 15.6192 14.4547 15.8221C14.1668 16.0326 13.7836 16.0579 13.4695 15.8895L9.74011 13.9443C9.61043 13.8753 9.46644 13.8382 9.31908 13.834H9.09089C9.01173 13.8458 8.93427 13.8711 8.86353 13.9098L5.13326 15.8642C4.94885 15.9568 4.74002 15.9897 4.5354 15.9568C4.03691 15.8625 3.7043 15.3876 3.78598 14.8866L4.5354 10.7437C4.58508 10.4414 4.48488 10.1341 4.26679 9.91934L1.22615 6.97217C0.97185 6.72545 0.883434 6.35494 0.999637 6.02065C1.11247 5.6872 1.40045 5.44385 1.74822 5.38911L5.9332 4.782C6.2515 4.74916 6.53106 4.55549 6.67421 4.26919L8.51829 0.488388C8.56208 0.404184 8.6185 0.326715 8.6867 0.261035L8.76249 0.202092C8.80206 0.158305 8.84754 0.122097 8.89806 0.0926254L8.98984 0.0589434L9.13299 0H9.48749C9.8041 0.0328399 10.0828 0.222301 10.2285 0.505229L12.097 4.26919C12.2317 4.54454 12.4936 4.73568 12.7959 4.782L16.9809 5.38911C17.3345 5.43964 17.6301 5.68383 17.7472 6.02065C17.8575 6.35831 17.7623 6.72881 17.503 6.97217L14.3537 9.95302Z" fill="#03A89E"/>
</svg>
