<svg width="19" height="16" viewBox="0 0 19 16" fill="none" xmlns="http://www.w3.org/2000/svg">
<path opacity="0.3" d="M15.1915 9.95302C14.9598 10.1644 14.8533 10.47 14.9061 10.7698L15.7014 14.9127C15.7685 15.2638 15.6111 15.6192 15.2988 15.8221C14.9929 16.0326 14.5858 16.0579 14.2521 15.8895L10.2895 13.9443C10.1518 13.8753 9.99877 13.8382 9.8422 13.834H9.59974C9.51564 13.8458 9.43333 13.8711 9.35818 13.9098L5.39476 15.8642C5.19882 15.9568 4.97694 15.9897 4.75954 15.9568C4.22989 15.8625 3.87649 15.3876 3.96327 14.8866L4.75954 10.7437C4.81232 10.4414 4.70586 10.1341 4.47414 9.91934L1.24346 6.97217C0.973264 6.72545 0.879323 6.35494 1.00279 6.02065C1.12268 5.6872 1.42865 5.44385 1.79816 5.38911L6.2447 4.782C6.58289 4.74916 6.87992 4.55549 7.03202 4.26919L8.99136 0.488388C9.03788 0.404184 9.09783 0.326715 9.1703 0.261035L9.25082 0.202092C9.29287 0.158305 9.34118 0.122097 9.39486 0.0926254L9.49238 0.0589434L9.64447 0H10.0211C10.3575 0.0328399 10.6537 0.222301 10.8084 0.505229L12.7937 4.26919C12.9369 4.54454 13.2151 4.73568 13.5363 4.782L17.9829 5.38911C18.3586 5.43964 18.6727 5.68383 18.797 6.02065C18.9142 6.35831 18.8131 6.72881 18.5376 6.97217L15.1915 9.95302Z" fill="#06152B"/>
</svg>
